<?xml version="1.0" encoding="UTF-8"?>
<svg id="Layer_1" xmlns="http://www.w3.org/2000/svg" xmlns:xlink="http://www.w3.org/1999/xlink" viewBox="0 0 1656.71 273.63">
  <defs>
    <style>
      .cls-1 {
        fill: #fff;
      }

      .cls-2 {
        fill: url(#linear-gradient);
      }
    </style>
    <linearGradient id="linear-gradient" x1="849.07" y1="207.62" x2="998.54" y2="58.95" gradientUnits="userSpaceOnUse">
      <stop offset="0" stop-color="#fff"/>
      <stop offset="1" stop-color="#fff"/>
    </linearGradient>
  </defs>
  <path class="cls-1" d="M699.08,213.84V.02h134.32v27.69h-104.99v66.07h70.66v28.24h-70.66v91.83h-29.33Z"/>
  <path class="cls-2" d="M1021.49,93.63c-5.3-13.08-13.09-24.81-23.15-34.87-10.06-10.06-21.79-17.85-34.87-23.15-12.63-5.12-25.97-7.72-39.66-7.72s-27.03,2.6-39.66,7.72c-13.08,5.3-24.81,13.09-34.87,23.15-10.06,10.06-17.85,21.79-23.15,34.87-5.12,12.63-7.72,25.97-7.72,39.66s2.6,27.03,7.72,39.66c5.3,13.08,13.09,24.81,23.15,34.87,10.06,10.06,21.79,17.85,34.87,23.15,12.63,5.12,25.97,7.72,39.66,7.72s27.03-2.6,39.66-7.72c13.08-5.3,24.81-13.09,34.87-23.15,10.06-10.06,17.85-21.79,23.15-34.87,5.12-12.63,7.72-25.97,7.72-39.66s-2.6-27.03-7.72-39.66ZM861.44,70.93c16.66-16.66,38.8-25.83,62.36-25.83,12.5,0,24.61,2.59,35.71,7.5-7.65-.29-15.14.11-22.43,1.21-14.53,2.2-28.26,7.16-40.79,14.74-20.48,12.39-31.03,27.75-32.26,29.61-6.91,9.94-11.05,21.99-11.65,33.96-.64,12.7,2.78,23.87,9.62,31.43,6.06,6.7,13.47,10.63,22.03,11.68.1.01.2.02.3.03.23.06.46.11.69.15,3.72.62,7.49.93,11.25.93,6.88,0,13.76-1.03,20.32-3.06,10.5-3.26,20.18-9.11,28-16.93,12.31-12.31,19.33-28.59,19.96-45.73,3.27.91,6.15,2.77,8.73,5.62,8.22,9.09,6.61,29.69-3.45,44.08-.07.1-.11.16-.17.26-.31.47-9.47,14.07-27.46,24.77-23.96,14.24-51.82,16.98-82.81,8.17-32.31-34.53-31.63-88.91,2.06-122.59ZM947.36,109.32c-.31,13.06-5.58,25.49-14.94,34.86-8.58,8.58-19.87,13.72-31.73,14.75.31-13.05,5.58-25.49,14.94-34.85,8.58-8.58,19.87-13.73,31.73-14.76ZM986.16,195.65c-25.27,25.27-62.2,31.97-93.64,20.09.28,0,.56,0,.84,0,5.98,0,11.86-.43,17.61-1.3,14.53-2.2,28.26-7.16,40.79-14.74,20.48-12.39,31.03-27.74,32.26-29.61,6.91-9.94,11.05-21.99,11.65-33.96.64-12.7-2.78-23.87-9.62-31.43-6.06-6.7-13.47-10.63-22.03-11.68-.1-.01-.21-.02-.31-.03-.22-.06-.45-.11-.68-.14-10.51-1.75-21.42-1.02-31.58,2.13-10.5,3.26-20.18,9.11-28,16.93-12.31,12.31-19.34,28.59-19.96,45.73-3.27-.91-6.15-2.77-8.73-5.62-8.22-9.09-6.61-29.69,3.45-44.08.07-.1.11-.16.17-.26.32-.48,9.47-14.08,27.46-24.77,24.15-14.35,52.26-17.03,83.54-7.96.23.07.46.12.69.17,30.42,34.6,29.11,87.52-3.91,120.55Z"/>
  <path class="cls-1" d="M0,.15h78.48c71.1,0,101.18,47.58,101.18,105.28,0,63.44-36.64,108.02-98.72,108.02H0V.15ZM79.3,186.38c39.38,0,69.46-25.16,69.46-79.03,0-59.07-36.1-80.12-77.39-80.12H29.26v159.16h50.04Z"/>
  <path class="cls-1" d="M198.8,138.25c0-47.04,31.45-80.95,75.2-80.95,33.09,0,71.1,19.96,71.1,78.21v9.02h-118.14c1.91,30.35,22.42,48.68,48.68,48.68,21.6,0,37.46-13.13,45.12-32l25.71,10.12c-10.67,28.17-37.19,46.76-70.83,46.76-44.03,0-76.84-31.99-76.84-79.85ZM316.66,124.03c-1.64-31.45-22.7-42.66-42.93-42.66-24.61,0-41.29,17.5-45.39,42.66h88.33Z"/>
  <path class="cls-1" d="M364.22,138.25c0-47.04,31.45-80.95,75.2-80.95,33.09,0,71.1,19.96,71.1,78.21v9.02h-118.14c1.91,30.35,22.42,48.68,48.68,48.68,21.6,0,37.46-13.13,45.12-32l25.71,10.12c-10.67,28.17-37.19,46.76-70.83,46.76-44.03,0-76.84-31.99-76.84-79.85ZM482.08,124.03c-1.64-31.45-22.7-42.66-42.93-42.66-24.61,0-41.29,17.5-45.39,42.66h88.33Z"/>
  <path class="cls-1" d="M530.59,61.68h27.35v27.62h.55c13.13-21.88,32.27-31.99,53.87-31.99,40.75,0,68.09,34.73,68.09,79.85,0,49.5-32,80.95-69.73,80.95-24.06,0-42.11-12.85-52.23-29.81v85.32h-27.89V61.68ZM605.25,192.12c26.8,0,46.22-23.24,46.22-54.42s-19.69-54.15-46.22-54.15-47.31,22.15-47.31,54.42,21.06,54.15,47.31,54.15Z"/>
  <path class="cls-1" d="M1047.69,61.68h27.35v27.62h1.09c7.66-18.05,24.61-31.99,45.94-31.99,5.2,0,10.67.82,16.13,3.01v30.63c-5.74-2.19-13.95-3.28-18.6-3.28-33.64,0-44.03,32.54-44.03,59.07v66.73h-27.89V61.68Z"/>
  <path class="cls-1" d="M1156.84,61.68h27.35v27.62h1.09c7.66-18.05,24.61-31.99,45.94-31.99,5.2,0,10.67.82,16.13,3.01v30.63c-5.74-2.19-13.95-3.28-18.6-3.28-33.64,0-44.03,32.54-44.03,59.07v66.73h-27.89V61.68Z"/>
  <path class="cls-1" d="M1255.74,138.25c0-47.04,31.45-80.95,75.2-80.95,33.09,0,71.1,19.96,71.1,78.21v9.02h-118.14c1.91,30.35,22.42,48.68,48.68,48.68,21.6,0,37.46-13.13,45.12-32l25.71,10.12c-10.67,28.17-37.19,46.76-70.83,46.76-44.03,0-76.84-31.99-76.84-79.85ZM1373.6,124.03c-1.64-31.45-22.7-42.66-42.93-42.66-24.61,0-41.29,17.5-45.39,42.66h88.33Z"/>
  <path class="cls-1" d="M1421.03,175.44l25.71-8.2c7.38,18.05,23.24,27.89,38.29,27.89,10.94,0,27.62-5.2,27.62-21.6,0-14.22-13.67-18.6-27.07-22.42l-15.31-4.38c-16.41-4.92-42.11-15.04-42.11-44.57s25.43-44.85,53.33-44.85,49.22,16.41,55.79,37.74l-25.98,8.75c-4.38-12.31-14.49-23.52-31.17-23.52-13.95,0-24.06,7.66-24.06,19.96,0,15.31,17.77,21.06,31.17,24.89l12.85,3.83c15.59,4.38,41.84,12.03,41.84,41.57,0,27.89-22.7,47.58-56.61,47.58s-56.61-16.95-64.26-42.66Z"/>
  <path class="cls-1" d="M1585.06,166.69v-79.85h-30.08v-25.16h30.08V17.65h27.62v44.03h44.03v25.16h-44.03v70.55c0,15.86,0,35.55,21.33,35.55,6.84,0,14.77-2.19,22.7-6.84v25.43c-7.66,4.38-18.05,6.56-28.17,6.56-43.48,0-43.48-34.73-43.48-51.41Z"/>
</svg>